<svg width="7" height="7" viewBox="0 0 7 7" fill="none" xmlns="http://www.w3.org/2000/svg">
<path d="M0.792969 6.29297C0.792969 6.01683 1.01683 5.79297 1.29297 5.79297L2.67172 5.79297C3.56263 5.79297 4.0088 4.71583 3.37883 4.08586L0.146485 0.853515C-0.048756 0.658274 -0.0487563 0.341725 0.146485 0.146484C0.341726 -0.0487575 0.658275 -0.0487575 0.853516 0.146484L4.08586 3.37883C4.71583 4.00879 5.79297 3.56263 5.79297 2.67172L5.79297 1.29297C5.79297 1.01683 6.01683 0.792969 6.29297 0.792969C6.56911 0.792969 6.79297 1.01683 6.79297 1.29297L6.79297 5.79297C6.79297 6.34525 6.34525 6.79297 5.79297 6.79297L1.29297 6.79297C1.01683 6.79297 0.792969 6.56911 0.792969 6.29297Z" fill="black"/>
</svg>
