<svg width="8" height="10" viewBox="0 0 8 10" fill="none" xmlns="http://www.w3.org/2000/svg">
<mask id="path-1-outside-1_57_3" maskUnits="userSpaceOnUse" x="-1.30897" y="-1.214" width="10.3156" height="11.7298" fill="black">
<rect fill="white" x="-1.30897" y="-1.214" width="10.3156" height="11.7298"/>
<path d="M4.06817 4.53486C4.01723 4.81675 4.29146 4.93766 4.36578 4.66102L4.60254 3.78119C4.69213 3.44842 5.03388 3.25093 5.36681 3.33994C5.72977 3.43719 5.92553 3.83054 5.78407 4.17866L5.34467 5.2597C5.31647 5.32906 5.35545 5.40744 5.42778 5.42682C5.48804 5.44297 5.55096 5.41201 5.57493 5.35441L5.96457 4.4181C6.12567 4.03145 6.6327 3.94062 6.91831 4.24701C7.06971 4.40949 7.11489 4.64449 7.03346 4.85111L6.15703 7.07303C5.75384 8.09498 4.65442 8.65458 3.59248 8.38463C3.59169 8.38442 3.59053 8.38463 3.58953 8.38466C3.58882 8.38467 3.58818 8.38432 3.58765 8.38385C3.58711 8.38337 3.58646 8.38302 3.58575 8.38285C3.57882 8.38123 3.57151 8.38103 3.56462 8.37919L3.38324 8.33059C3.38287 8.33049 3.38265 8.33011 3.38275 8.32974C3.3828 8.32956 3.38277 8.32937 3.38268 8.32922L3.38248 8.32886C3.38226 8.32848 3.38189 8.3282 3.38146 8.32809C2.57766 8.11199 1.93413 7.50986 1.66735 6.72129L1.48126 6.16982C1.37906 5.86695 1.19935 5.59612 0.960002 5.38426C0.590927 5.05668 0.651243 4.46379 1.07866 4.217C1.47387 3.9889 1.97914 4.17947 2.12544 4.61173L2.20878 4.85817C2.34311 5.25544 2.92547 5.18331 2.95882 4.76527L2.7611 1.48325C2.73029 0.971844 3.11992 0.532303 3.63132 0.501531C4.23138 0.465426 4.70676 1.00086 4.59986 1.59242L4.06817 4.53486ZM3.38954 8.28971C3.38854 8.29593 3.39711 8.29863 3.39985 8.29296C3.40096 8.29066 3.40032 8.28791 3.39849 8.28614C3.39844 8.2861 3.3984 8.28605 3.39835 8.28601C3.39523 8.28298 3.39037 8.28461 3.38967 8.2889L3.38954 8.28971Z"/>
</mask>
<path d="M4.06817 4.53486C4.01723 4.81675 4.29146 4.93766 4.36578 4.66102L4.60254 3.78119C4.69213 3.44842 5.03388 3.25093 5.36681 3.33994C5.72977 3.43719 5.92553 3.83054 5.78407 4.17866L5.34467 5.2597C5.31647 5.32906 5.35545 5.40744 5.42778 5.42682C5.48804 5.44297 5.55096 5.41201 5.57493 5.35441L5.96457 4.4181C6.12567 4.03145 6.6327 3.94062 6.91831 4.24701C7.06971 4.40949 7.11489 4.64449 7.03346 4.85111L6.15703 7.07303C5.75384 8.09498 4.65442 8.65458 3.59248 8.38463C3.59169 8.38442 3.59053 8.38463 3.58953 8.38466C3.58882 8.38467 3.58818 8.38432 3.58765 8.38385C3.58711 8.38337 3.58646 8.38302 3.58575 8.38285C3.57882 8.38123 3.57151 8.38103 3.56462 8.37919L3.38324 8.33059C3.38287 8.33049 3.38265 8.33011 3.38275 8.32974C3.3828 8.32956 3.38277 8.32937 3.38268 8.32922L3.38248 8.32886C3.38226 8.32848 3.38189 8.3282 3.38146 8.32809C2.57766 8.11199 1.93413 7.50986 1.66735 6.72129L1.48126 6.16982C1.37906 5.86695 1.19935 5.59612 0.960002 5.38426C0.590927 5.05668 0.651243 4.46379 1.07866 4.217C1.47387 3.9889 1.97914 4.17947 2.12544 4.61173L2.20878 4.85817C2.34311 5.25544 2.92547 5.18331 2.95882 4.76527L2.7611 1.48325C2.73029 0.971844 3.11992 0.532303 3.63132 0.501531C4.23138 0.465426 4.70676 1.00086 4.59986 1.59242L4.06817 4.53486ZM3.38954 8.28971C3.38854 8.29593 3.39711 8.29863 3.39985 8.29296C3.40096 8.29066 3.40032 8.28791 3.39849 8.28614C3.39844 8.2861 3.3984 8.28605 3.39835 8.28601C3.39523 8.28298 3.39037 8.28461 3.38967 8.2889L3.38954 8.28971Z" fill="white"/>
<path d="M4.36578 4.66102L3.88295 4.53109L3.8829 4.5313L4.36578 4.66102ZM4.60254 3.78119L4.11973 3.6512L4.11972 3.65126L4.60254 3.78119ZM5.36681 3.33994L5.49622 2.85697L5.49594 2.8569L5.36681 3.33994ZM5.78407 4.17866L6.24727 4.36693L6.24728 4.36689L5.78407 4.17866ZM5.96457 4.4181L5.50303 4.2258L5.50295 4.226L5.96457 4.4181ZM6.91831 4.24701L7.28411 3.90615L7.28404 3.90608L6.91831 4.24701ZM7.03346 4.85111L7.49858 5.03457L7.49863 5.03445L7.03346 4.85111ZM6.15703 7.07303L6.62214 7.25653L6.62216 7.25649L6.15703 7.07303ZM3.59248 8.38463L3.46626 8.86844L3.4693 8.86922L3.59248 8.38463ZM3.56462 8.37919L3.43521 8.86215L3.43525 8.86216L3.56462 8.37919ZM1.66735 6.72129L1.1936 6.88116L1.19372 6.88153L1.66735 6.72129ZM0.960002 5.38426L0.628093 5.75821L0.628602 5.75866L0.960002 5.38426ZM1.07866 4.217L0.828721 3.78394L0.828633 3.784L1.07866 4.217ZM2.12544 4.61173L2.59909 4.45156L2.59905 4.45143L2.12544 4.61173ZM2.95882 4.76527L3.45724 4.80504L3.46002 4.77014L3.45792 4.7352L2.95882 4.76527ZM3.39985 8.29296L2.94963 8.07547L3.39985 8.29296ZM3.38954 8.28971L3.88315 8.36943L3.38954 8.28971ZM2.7611 1.48325L2.26201 1.51332L2.7611 1.48325ZM3.38275 8.32974L3.86571 8.45915L3.38275 8.32974ZM3.58765 8.38385L3.25592 8.75795L3.58765 8.38385ZM3.58575 8.38285L3.47219 8.86978L3.58575 8.38285ZM3.58953 8.38466L3.6016 8.88451L3.58953 8.38466ZM3.38248 8.32886L3.81549 8.07886L3.38248 8.32886ZM3.38146 8.32809L3.51128 7.84523L3.38146 8.32809ZM3.39835 8.28601L3.05005 8.64474L3.39835 8.28601ZM3.38967 8.2889L2.89607 8.20918L3.38967 8.2889ZM3.38268 8.32922L3.81569 8.07922L3.38268 8.32922ZM3.39849 8.28614L3.05109 8.64574L3.39849 8.28614ZM5.34467 5.2597L4.88147 5.07143L5.34467 5.2597ZM4.36578 4.66102L4.8486 4.79095L5.08536 3.91111L4.60254 3.78119L4.11972 3.65126L3.88295 4.53109L4.36578 4.66102ZM4.60254 3.78119L5.08535 3.91117C5.10334 3.84433 5.17158 3.8053 5.23768 3.82297L5.36681 3.33994L5.49594 2.8569C4.89619 2.69656 4.28092 3.0525 4.11973 3.6512L4.60254 3.78119ZM5.36681 3.33994L5.2374 3.8229C5.31006 3.84237 5.34904 3.92106 5.32085 3.99043L5.78407 4.17866L6.24728 4.36689C6.50202 3.74002 6.14947 3.03201 5.49622 2.85697L5.36681 3.33994ZM5.78407 4.17866L5.32087 3.99038L4.88147 5.07143L5.34467 5.2597L5.80787 5.44797L6.24727 4.36693L5.78407 4.17866ZM5.57493 5.35441L6.03655 5.54651L6.4262 4.61021L5.96457 4.4181L5.50295 4.226L5.11331 5.1623L5.57493 5.35441ZM5.96457 4.4181L6.42611 4.6104C6.44727 4.55963 6.51449 4.5471 6.55257 4.58794L6.91831 4.24701L7.28404 3.90608C6.7509 3.33414 5.80407 3.50328 5.50303 4.2258L5.96457 4.4181ZM6.91831 4.24701L6.5525 4.58787C6.57332 4.61022 6.57863 4.64151 6.56828 4.66776L7.03346 4.85111L7.49863 5.03445C7.65115 4.64747 7.56609 4.20877 7.28411 3.90615L6.91831 4.24701ZM7.03346 4.85111L6.56833 4.66764L5.69191 6.88956L6.15703 7.07303L6.62216 7.25649L7.49858 5.03457L7.03346 4.85111ZM6.15703 7.07303L5.69192 6.88953C5.38139 7.67664 4.53442 8.10817 3.71567 7.90004L3.59248 8.38463L3.4693 8.86922C4.77441 9.20098 6.1263 8.51332 6.62214 7.25653L6.15703 7.07303ZM3.59248 8.38463L3.71871 7.90083C3.67221 7.88869 3.63355 7.88579 3.61139 7.88493C3.58846 7.88403 3.57039 7.88492 3.56266 7.88536C3.55631 7.88573 3.54775 7.8864 3.55271 7.88603C3.55364 7.88596 3.56412 7.88512 3.57746 7.8848L3.58953 8.38466L3.6016 8.88451C3.61544 8.88418 3.62644 8.88331 3.62789 8.8832C3.63338 8.88278 3.62535 8.88342 3.6195 8.88375C3.61229 8.88416 3.59473 8.88504 3.57227 8.88416C3.55058 8.88331 3.51236 8.88046 3.46626 8.86844L3.59248 8.38463ZM3.58575 8.38285L3.69932 7.89592C3.68133 7.89173 3.66642 7.88921 3.6574 7.88781C3.65278 7.88709 3.64893 7.88654 3.64658 7.88622C3.64538 7.88605 3.64434 7.88591 3.64371 7.88582C3.64265 7.88568 3.64302 7.88573 3.64253 7.88566C3.64213 7.88561 3.6434 7.88578 3.64526 7.88605C3.64722 7.88634 3.65055 7.88685 3.65478 7.88758C3.66303 7.889 3.67691 7.89164 3.694 7.89622L3.56462 8.37919L3.43525 8.86216C3.45579 8.86766 3.47316 8.87102 3.48494 8.87305C3.49618 8.87499 3.50559 8.87625 3.50781 8.87655C3.51006 8.87685 3.50911 8.87672 3.5091 8.87672C3.50852 8.87664 3.50644 8.87635 3.50359 8.87591C3.4981 8.87505 3.48671 8.87317 3.47219 8.86978L3.58575 8.38285ZM3.56462 8.37919L3.69403 7.89622L3.51265 7.84762L3.38324 8.33059L3.25383 8.81355L3.43521 8.86215L3.56462 8.37919ZM3.38268 8.32922L3.81569 8.07922L3.81549 8.07886L3.38248 8.32886L2.94946 8.57886L2.94967 8.57922L3.38268 8.32922ZM3.38146 8.32809L3.51128 7.84523C2.86821 7.67235 2.35405 7.19086 2.14098 6.56106L1.66735 6.72129L1.19372 6.88153C1.51421 7.82885 2.2871 8.55163 3.25165 8.81094L3.38146 8.32809ZM1.66735 6.72129L2.14111 6.56143L1.95501 6.00995L1.48126 6.16982L1.00751 6.32968L1.1936 6.88116L1.66735 6.72129ZM0.960002 5.38426L1.29191 5.01031C1.17817 4.90936 1.19652 4.72631 1.32868 4.64999L1.07866 4.217L0.828633 3.784C0.105965 4.20128 0.00368828 5.204 0.628093 5.75821L0.960002 5.38426ZM1.07866 4.217L1.32859 4.65005C1.45047 4.5797 1.60662 4.63845 1.65183 4.77202L2.12544 4.61173L2.59905 4.45143C2.35165 3.72049 1.49728 3.39809 0.828721 3.78394L1.07866 4.217ZM2.12544 4.61173L1.65179 4.77189L1.73512 5.01833L2.20878 4.85817L2.68243 4.698L2.59909 4.45156L2.12544 4.61173ZM2.95882 4.76527L3.45792 4.7352L3.2602 1.45318L2.7611 1.48325L2.26201 1.51332L2.45973 4.79534L2.95882 4.76527ZM4.59986 1.59242L4.10783 1.50351L3.57613 4.44595L4.06817 4.53486L4.5602 4.62377L5.0919 1.68133L4.59986 1.59242ZM3.39849 8.28614L3.74589 7.92654C3.74615 7.92679 3.7464 7.92704 3.74664 7.92727L3.39835 8.28601L3.05005 8.64474C3.05039 8.64507 3.05074 8.6454 3.05109 8.64574L3.39849 8.28614ZM3.38967 8.2889L2.89607 8.20918L2.89594 8.21L3.38954 8.28971L3.88315 8.36943L3.88328 8.36861L3.38967 8.2889ZM3.39985 8.29296L2.94963 8.07547C3.19763 7.5621 3.97404 7.80661 3.88315 8.36943L3.38954 8.28971L2.89594 8.21C2.80304 8.78524 3.59659 9.03515 3.85007 8.51045L3.39985 8.29296ZM3.63132 0.501531L3.66135 1.00063C3.93797 0.983985 4.15711 1.23081 4.10783 1.50351L4.59986 1.59242L5.0919 1.68133C5.25641 0.770905 4.52479 -0.0531327 3.60129 0.00243405L3.63132 0.501531ZM2.7611 1.48325L3.2602 1.45318C3.246 1.21743 3.4256 1.01481 3.66135 1.00063L3.63132 0.501531L3.60129 0.00243405C2.81423 0.0497918 2.21459 0.726254 2.26201 1.51332L2.7611 1.48325ZM1.48126 6.16982L1.95501 6.00995C1.8249 5.62438 1.59612 5.27958 1.2914 5.00986L0.960002 5.38426L0.628602 5.75866C0.802585 5.91266 0.933217 6.10953 1.00751 6.32968L1.48126 6.16982ZM3.38324 8.33059L3.51265 7.84762C3.77901 7.91899 3.93708 8.19278 3.86571 8.45915L3.38275 8.32974L2.89979 8.20033C2.82822 8.46743 2.98673 8.74198 3.25383 8.81355L3.38324 8.33059ZM3.58765 8.38385L3.91939 8.00975C3.86093 7.95791 3.78641 7.91623 3.69932 7.89592L3.58575 8.38285L3.47219 8.86978C3.38651 8.8498 3.31329 8.80882 3.25592 8.75795L3.58765 8.38385ZM4.36578 4.66102L3.8829 4.5313C3.885 4.52349 3.90838 4.44385 4.00681 4.37939C4.1171 4.30715 4.25545 4.29964 4.36831 4.3484C4.57807 4.43903 4.56128 4.6178 4.5602 4.62377L4.06817 4.53486L3.57613 4.44595C3.52412 4.73381 3.61897 5.11398 3.97169 5.26638C4.15603 5.34602 4.37369 5.33449 4.55471 5.21593C4.72387 5.10513 4.8094 4.93687 4.84866 4.79074L4.36578 4.66102ZM2.20878 4.85817L1.73512 5.01833C2.04356 5.93047 3.38066 5.76486 3.45724 4.80504L2.95882 4.76527L2.46041 4.7255C2.46168 4.70959 2.47206 4.6785 2.49893 4.65252C2.52152 4.63069 2.54438 4.62321 2.56021 4.62125C2.57604 4.61929 2.60003 4.62096 2.62727 4.63663C2.65966 4.65526 2.67732 4.68288 2.68243 4.698L2.20878 4.85817ZM3.58953 8.38466L3.57746 7.8848C3.75597 7.88049 3.87415 7.96964 3.91939 8.00975L3.58765 8.38385L3.25592 8.75795C3.30221 8.799 3.42167 8.88886 3.6016 8.88451L3.58953 8.38466ZM3.38248 8.32886L3.81549 8.07886C3.74878 7.96332 3.63913 7.8796 3.51128 7.84523L3.38146 8.32809L3.25165 8.81094C3.12466 8.7768 3.01573 8.69365 2.94946 8.57886L3.38248 8.32886ZM3.39835 8.28601L3.74664 7.92727C3.45124 7.64046 2.96078 7.8085 2.89607 8.20918L3.38967 8.2889L3.88328 8.36861C3.81996 8.76072 3.33923 8.9255 3.05005 8.64474L3.39835 8.28601ZM5.42778 5.42682L5.29837 5.90979C5.6007 5.9908 5.9163 5.83548 6.03655 5.54651L5.57493 5.35441L5.11331 5.1623C5.18562 4.98854 5.37539 4.89515 5.55719 4.94386L5.42778 5.42682ZM3.38275 8.32974L3.86571 8.45915C3.90008 8.33088 3.88209 8.19422 3.81569 8.07922L3.38268 8.32922L2.94967 8.57922C2.88345 8.46453 2.86551 8.32824 2.89979 8.20033L3.38275 8.32974ZM3.39985 8.29296L3.85007 8.51045C3.95521 8.2928 3.88556 8.06147 3.74589 7.92654L3.39849 8.28614L3.05109 8.64574C2.91508 8.51435 2.8467 8.28852 2.94963 8.07547L3.39985 8.29296ZM5.34467 5.2597L4.88147 5.07143C4.74004 5.41939 4.93556 5.81257 5.29837 5.90979L5.42778 5.42682L5.55719 4.94386C5.77534 5.00232 5.89291 5.23874 5.80787 5.44797L5.34467 5.2597Z" fill="black" mask="url(#path-1-outside-1_57_3)"/>
</svg>
