<svg width="6" height="7" viewBox="0 0 6 7" fill="none" xmlns="http://www.w3.org/2000/svg">
<path d="M2.67945 3.2299C2.76879 3.48325 3.04906 3.45448 2.98116 3.19457L2.76535 2.36677C2.68354 2.05357 2.87068 1.73373 3.18371 1.65149C3.52503 1.56209 3.86827 1.79167 3.91471 2.14144L4.05876 3.22796C4.06799 3.29755 4.13612 3.34331 4.20403 3.32552C4.26061 3.3107 4.29749 3.25629 4.29029 3.19825L4.17295 2.25248C4.12462 1.86215 4.49565 1.55167 4.8711 1.66885C5.07022 1.731 5.21616 1.9023 5.24577 2.10878L5.53454 4.1228C5.69907 5.27032 4.97648 6.35866 3.85505 6.65239C3.11758 6.84555 2.33237 6.65741 1.76252 6.15101L1.32833 5.76517C1.10436 5.56613 0.83225 5.4291 0.538988 5.36766C0.0856095 5.27199 -0.140656 4.75985 0.0932997 4.35981C0.309737 3.9902 0.810104 3.91069 1.13035 4.19519L1.30709 4.35216C1.57428 4.58948 1.98701 4.33623 1.89646 3.99052C1.88662 3.95296 1.8708 3.91723 1.84958 3.88471L0.194667 1.34725C-0.0681078 0.944347 0.0454924 0.404705 0.4484 0.14193C0.921176 -0.166412 1.55787 0.0494838 1.74559 0.581794L2.67945 3.2299ZM3.87197 6.60788C3.87382 6.61302 3.88149 6.61138 3.88106 6.60593C3.88089 6.60377 3.87926 6.60201 3.87716 6.60146C3.87709 6.60144 3.87702 6.60142 3.87696 6.6014C3.87338 6.60045 3.87046 6.60366 3.87171 6.60714L3.87197 6.60788Z" fill="#052AE4"/>
</svg>
