<svg width="7" height="8" viewBox="0 0 7 8" fill="none" xmlns="http://www.w3.org/2000/svg">
<mask id="path-1-outside-1_278_36" maskUnits="userSpaceOnUse" x="-1.84232" y="-1.73513" width="10.0193" height="10.7333" fill="black">
<rect fill="white" x="-1.84232" y="-1.73513" width="10.0193" height="10.7333"/>
<path d="M3.17993 3.7299C3.26928 3.98325 3.54954 3.95448 3.48165 3.69457L3.26584 2.86677C3.18402 2.55357 3.37117 2.23373 3.6842 2.15149C4.02552 2.06209 4.36876 2.29167 4.4152 2.64144L4.55925 3.72796C4.56848 3.79755 4.63661 3.84331 4.70452 3.82552C4.7611 3.8107 4.79797 3.75629 4.79077 3.69825L4.67344 2.75248C4.62511 2.36215 4.99613 2.05167 5.37159 2.16885C5.57071 2.231 5.71665 2.4023 5.74626 2.60878L6.03503 4.6228C6.19956 5.77032 5.47696 6.85866 4.35554 7.15239C3.61807 7.34555 2.83286 7.15741 2.26301 6.65101L1.82882 6.26517C1.60485 6.06613 1.33274 5.9291 1.03948 5.86766C0.586098 5.77199 0.359832 5.25985 0.593788 4.85981C0.810225 4.4902 1.31059 4.41069 1.63084 4.69519L1.80758 4.85216C2.07477 5.08948 2.4875 4.83623 2.39695 4.49052C2.38711 4.45296 2.37128 4.41723 2.35007 4.38471L0.695155 1.84725C0.432381 1.44435 0.545981 0.904705 0.948888 0.64193C1.42166 0.333588 2.05836 0.549484 2.24608 1.08179L3.17993 3.7299ZM4.37246 7.10788C4.37431 7.11302 4.38198 7.11138 4.38155 7.10593C4.38138 7.10377 4.37974 7.10201 4.37765 7.10146C4.37758 7.10144 4.37751 7.10142 4.37744 7.1014C4.37387 7.10045 4.37095 7.10366 4.3722 7.10714L4.37246 7.10788Z"/>
</mask>
<path d="M3.17993 3.7299C3.26928 3.98325 3.54954 3.95448 3.48165 3.69457L3.26584 2.86677C3.18402 2.55357 3.37117 2.23373 3.6842 2.15149C4.02552 2.06209 4.36876 2.29167 4.4152 2.64144L4.55925 3.72796C4.56848 3.79755 4.63661 3.84331 4.70452 3.82552C4.7611 3.8107 4.79797 3.75629 4.79077 3.69825L4.67344 2.75248C4.62511 2.36215 4.99613 2.05167 5.37159 2.16885C5.57071 2.231 5.71665 2.4023 5.74626 2.60878L6.03503 4.6228C6.19956 5.77032 5.47696 6.85866 4.35554 7.15239C3.61807 7.34555 2.83286 7.15741 2.26301 6.65101L1.82882 6.26517C1.60485 6.06613 1.33274 5.9291 1.03948 5.86766C0.586098 5.77199 0.359832 5.25985 0.593788 4.85981C0.810225 4.4902 1.31059 4.41069 1.63084 4.69519L1.80758 4.85216C2.07477 5.08948 2.4875 4.83623 2.39695 4.49052C2.38711 4.45296 2.37128 4.41723 2.35007 4.38471L0.695155 1.84725C0.432381 1.44435 0.545981 0.904705 0.948888 0.64193C1.42166 0.333588 2.05836 0.549484 2.24608 1.08179L3.17993 3.7299ZM4.37246 7.10788C4.37431 7.11302 4.38198 7.11138 4.38155 7.10593C4.38138 7.10377 4.37974 7.10201 4.37765 7.10146C4.37758 7.10144 4.37751 7.10142 4.37744 7.1014C4.37387 7.10045 4.37095 7.10366 4.3722 7.10714L4.37246 7.10788Z" fill="white"/>
<path d="M3.48165 3.69457L2.99782 3.8207L2.99788 3.82094L3.48165 3.69457ZM3.26584 2.86677L3.74967 2.74063L3.74961 2.7404L3.26584 2.86677ZM3.6842 2.15149L3.55751 1.6678L3.55715 1.6679L3.6842 2.15149ZM4.4152 2.64144L4.91086 2.57572L4.91085 2.57563L4.4152 2.64144ZM4.67344 2.75248L4.17723 2.81392L4.17724 2.81404L4.67344 2.75248ZM5.37159 2.16885L5.52055 1.69156L5.52055 1.69156L5.37159 2.16885ZM5.74626 2.60878L6.2412 2.53782L6.24119 2.5378L5.74626 2.60878ZM1.03948 5.86766L0.936241 6.35689L0.936946 6.35704L1.03948 5.86766ZM0.593788 4.85981L0.162323 4.60715L0.16218 4.60739L0.593788 4.85981ZM1.63084 4.69519L1.29877 5.06899L1.29881 5.06903L1.63084 4.69519ZM4.37744 7.1014L4.50638 6.61831L4.37744 7.1014ZM4.3722 7.10714L4.84277 6.93813L4.3722 7.10714ZM4.38155 7.10592L3.88309 7.14517L4.38155 7.10592ZM4.37765 7.10146L4.50499 6.61795L4.37765 7.10146ZM4.37246 7.10788L4.84303 6.93886L4.37246 7.10788ZM3.17993 3.7299L2.7084 3.89619L3.17993 3.7299ZM2.26301 6.65101L1.93088 7.02476L1.93088 7.02476L2.26301 6.65101ZM2.39695 4.49052L2.88064 4.36384L2.39695 4.49052ZM2.35007 4.38471L2.76887 4.11157L2.35007 4.38471ZM4.79077 3.69825L5.28697 3.63669L4.79077 3.69825ZM6.03503 4.6228L5.54009 4.69377L6.03503 4.6228ZM4.55925 3.72796L4.06359 3.79367L4.55925 3.72796ZM3.48165 3.69457L3.96548 3.56843L3.74967 2.74063L3.26584 2.86677L2.78201 2.9929L2.99782 3.8207L3.48165 3.69457ZM3.26584 2.86677L3.74961 2.7404C3.73754 2.6942 3.76494 2.64724 3.81124 2.63508L3.6842 2.15149L3.55715 1.6679C2.97739 1.82021 2.63051 2.41294 2.78207 2.99314L3.26584 2.86677ZM3.6842 2.15149L3.81088 2.63517C3.86242 2.62167 3.91284 2.65672 3.91955 2.70724L4.4152 2.64144L4.91085 2.57563C4.82468 1.92662 4.18861 1.50251 3.55751 1.6678L3.6842 2.15149ZM4.4152 2.64144L3.91954 2.70715L4.06359 3.79367L4.55925 3.72796L5.05491 3.66224L4.91086 2.57572L4.4152 2.64144ZM4.79077 3.69825L5.28697 3.63669L5.16964 2.69092L4.67344 2.75248L4.17724 2.81404L4.29458 3.75981L4.79077 3.69825ZM4.67344 2.75248L5.16965 2.69104C5.16836 2.6806 5.16996 2.67468 5.17164 2.67061C5.17377 2.66543 5.17787 2.65933 5.18435 2.65391C5.19083 2.64849 5.19747 2.64561 5.20273 2.64448C5.20681 2.6436 5.21271 2.64305 5.22262 2.64614L5.37159 2.16885L5.52055 1.69156C4.7973 1.46583 4.08435 2.06379 4.17723 2.81392L4.67344 2.75248ZM5.37159 2.16885L5.22262 2.64614C5.23785 2.6509 5.24909 2.66419 5.25132 2.67976L5.74626 2.60878L6.24119 2.5378C6.1842 2.1404 5.90357 1.8111 5.52055 1.69156L5.37159 2.16885ZM5.74626 2.60878L5.25132 2.67975L5.54009 4.69377L6.03503 4.6228L6.52996 4.55184L6.2412 2.53782L5.74626 2.60878ZM2.26301 6.65101L2.59514 6.27726L2.16095 5.89142L1.82882 6.26517L1.49669 6.63892L1.93088 7.02476L2.26301 6.65101ZM1.03948 5.86766L1.14271 5.37844C1.02379 5.35334 0.963343 5.21833 1.0254 5.11223L0.593788 4.85981L0.16218 4.60739C-0.243679 5.30137 0.148406 6.19064 0.936241 6.35689L1.03948 5.86766ZM0.593788 4.85981L1.02525 5.11247C1.0824 5.01488 1.21439 4.99403 1.29877 5.06899L1.63084 4.69519L1.96291 4.32139C1.4068 3.82735 0.538048 3.96553 0.162323 4.60715L0.593788 4.85981ZM1.63084 4.69519L1.29881 5.06903L1.47554 5.226L1.80758 4.85216L2.13961 4.47833L1.96288 4.32136L1.63084 4.69519ZM2.35007 4.38471L2.76887 4.11157L1.11396 1.57411L0.695155 1.84725L0.276354 2.12039L1.93127 4.65785L2.35007 4.38471ZM2.24608 1.08179L1.77454 1.24808L2.7084 3.89619L3.17993 3.7299L3.65147 3.56361L2.71762 0.915505L2.24608 1.08179ZM4.37765 7.10146L4.50499 6.61795C4.50547 6.61807 4.50594 6.6182 4.50638 6.61831L4.37744 7.1014L4.24851 7.58449C4.24909 7.58465 4.24969 7.58481 4.25031 7.58497L4.37765 7.10146ZM4.3722 7.10714L3.90163 7.27616L3.9019 7.27689L4.37246 7.10788L4.84303 6.93886L4.84277 6.93813L4.3722 7.10714ZM4.37744 7.1014L4.50638 6.61831C4.10787 6.51195 3.76587 6.89817 3.90163 7.27616L4.3722 7.10714L4.84277 6.93813C4.97603 7.30915 4.63988 7.68895 4.24851 7.58449L4.37744 7.1014ZM4.38155 7.10592L4.88 7.06668C4.86122 6.82815 4.68789 6.66612 4.50499 6.61795L4.37765 7.10146L4.25031 7.58497C4.0716 7.5379 3.90153 7.37938 3.88309 7.14517L4.38155 7.10592ZM4.38155 7.10592L3.88309 7.14517C3.83773 6.56908 4.6477 6.39501 4.84303 6.93886L4.37246 7.10788L3.9019 7.27689C4.10093 7.83104 4.92622 7.65368 4.88 7.06668L4.38155 7.10592ZM0.948888 0.64193L1.22203 1.06073C1.4234 0.929399 1.69458 1.02136 1.77454 1.24808L2.24608 1.08179L2.71762 0.915505C2.42213 0.0776116 1.41993 -0.262224 0.675748 0.223129L0.948888 0.64193ZM0.695155 1.84725L1.11396 1.57411C1.00203 1.4025 1.05042 1.17265 1.22203 1.06073L0.948888 0.64193L0.675748 0.223129C0.0415429 0.636755 -0.137272 1.48619 0.276354 2.12039L0.695155 1.84725ZM1.82882 6.26517L2.16095 5.89142C1.87183 5.63449 1.52057 5.4576 1.14201 5.37829L1.03948 5.86766L0.936946 6.35704C1.14491 6.40061 1.33786 6.49778 1.49669 6.63892L1.82882 6.26517ZM3.48165 3.69457L2.99788 3.82094C2.99465 3.80857 2.97587 3.72417 3.03094 3.61695C3.09243 3.49722 3.211 3.42137 3.33502 3.40771C3.56604 3.38227 3.64621 3.5487 3.65147 3.56361L3.17993 3.7299L2.7084 3.89619C2.803 4.16445 3.06798 4.44317 3.4445 4.4017C3.64126 4.38003 3.82275 4.26409 3.92049 4.07379C4.0118 3.89599 4.00259 3.71052 3.96542 3.5682L3.48165 3.69457ZM4.35554 7.15239L4.22885 6.6687C3.65309 6.81951 3.04004 6.67262 2.59514 6.27726L2.26301 6.65101L1.93088 7.02476C2.62568 7.64219 3.58306 7.87158 4.48223 7.63607L4.35554 7.15239ZM2.39695 4.49052L2.88064 4.36384C2.85718 4.27429 2.81944 4.18911 2.76887 4.11157L2.35007 4.38471L1.93127 4.65785C1.92312 4.64536 1.91705 4.63164 1.91327 4.61721L2.39695 4.49052ZM4.70452 3.82552L4.83121 4.3092C5.13018 4.2309 5.32502 3.94339 5.28697 3.63669L4.79077 3.69825L4.29458 3.75981C4.27093 3.56919 4.39202 3.3905 4.57783 3.34184L4.70452 3.82552ZM6.03503 4.6228L5.54009 4.69377C5.66854 5.58967 5.10439 6.43938 4.22885 6.6687L4.35554 7.15239L4.48223 7.63607C5.84954 7.27794 6.73057 5.95096 6.52996 4.55184L6.03503 4.6228ZM1.80758 4.85216L1.47554 5.226C2.11254 5.79177 3.0965 5.18801 2.88064 4.36384L2.39695 4.49052L1.91327 4.61721C1.90725 4.59425 1.9078 4.55946 1.9228 4.52527C1.93614 4.4949 1.95614 4.47533 1.97492 4.46381C1.99369 4.45229 2.02021 4.44331 2.05332 4.44519C2.0906 4.44729 2.12187 4.46257 2.13961 4.47833L1.80758 4.85216ZM4.55925 3.72796L4.06359 3.79367C4.11234 4.1614 4.47236 4.40319 4.83121 4.3092L4.70452 3.82552L4.57783 3.34184C4.80086 3.28342 5.02461 3.43369 5.05491 3.66224L4.55925 3.72796Z" fill="black" mask="url(#path-1-outside-1_278_36)"/>
</svg>
