<svg width="60" height="80" viewBox="0 0 60 80" fill="none" xmlns="http://www.w3.org/2000/svg">
<path d="M-1.78814e-06 75C-1.78814e-06 77.7614 2.23857 80 5 80H35C37.7614 80 40 77.7614 40 75V63C40 60.2386 42.2386 58 45 58H55C57.7614 58 60 55.7614 60 53V23C60 20.2386 57.7614 18 55 18H45C42.2386 18 40 15.7614 40 13V5C40 2.23858 37.7614 0 35 0H5C2.23857 0 -1.78814e-06 2.23858 -1.78814e-06 5V75Z" fill="white"/>
<path d="M49.8235 44V33.8505L53.9562 37.9039L54.6667 37.223L49.3252 32L44.0001 37.223L44.6943 37.9039L48.827 33.8505V44H49.8235Z" fill="#0C0C0C"/>
</svg>
